Coordinates
version=1
nRows=21
nColumns=22
inDegrees=yes

Units are S.I. units (second, meters, Newtons, ...)
If the header above contains a line with 'inDegrees', this indicates whether rotational values are in degrees (yes) or radians (no).

endheader
time	pelvis_tilt	pelvis_list	pelvis_rotation	pelvis_tx	pelvis_ty	pelvis_tz	hip_flexion_r	hip_adduction_r	hip_rotation_r	knee_angle_r	ankle_angle_r	subtalar_angle_r	hip_flexion_l	hip_adduction_l	hip_rotation_l	knee_angle_l	ankle_angle_l	subtalar_angle_l	lumbar_extension	lumbar_bending	lumbar_rotation
      0.01000000	     -0.10172281	     -4.36359590	     -4.23942620	      0.16084930	      1.01978358	      0.80741334	      4.42340079	      6.04176079	     -0.51131315	    -15.01186121	     15.17869455	      5.12364884	      2.44769485	     -1.83807870	      0.81884356	    -12.73072682	      5.90572566	    -13.71181299	    -11.95861679	      4.35825256	      3.63517599
      0.02000000	     -0.10260286	     -4.36224179	     -4.22226266	      0.16079406	      1.01978044	      0.80733976	      4.42890333	      6.03775692	     -0.51053617	    -15.01290690	     15.17885697	      5.12314406	      2.45127129	     -1.83490534	      0.81845869	    -12.72227276	      5.90592345	    -13.71188586	    -11.96711966	      4.36277114	      3.64523109
      0.03000000	     -0.09848036	     -4.35620871	     -4.20458718	      0.16071307	      1.01978123	      0.80725218	      4.44520615	      6.02505748	     -0.54288538	    -15.03946590	     15.18045000	      5.12045116	      2.44307491	     -1.82297529	      0.85954805	    -12.70147756	      5.89782240	    -13.71192352	    -11.98580347	      4.35859181	      3.69887802
      0.04000000	     -0.09172649	     -4.34192269	     -4.17655130	      0.16064042	      1.01978535	      0.80714220	      4.45942711	      6.00262156	     -0.57792286	    -15.06854184	     15.18935023	      5.11899328	      2.42712330	     -1.80149558	      0.89769817	    -12.66631315	      5.88392763	    -13.71328966	    -12.00287659	      4.34770290	      3.72216510
      0.05000000	     -0.07728062	     -4.31774273	     -4.13306378	      0.16057538	      1.01980096	      0.80700383	      4.46002197	      5.96785883	     -0.61955790	    -15.08764607	     15.21501242	      5.12073233	      2.40417553	     -1.76779166	      0.94235095	    -12.62836763	      5.85471230	    -13.71885539	    -12.02495840	      4.32711690	      3.71344107
      0.06000000	     -0.07696670	     -4.31567707	     -4.10360078	      0.16049197	      1.01979454	      0.80689626	      4.46695919	      5.96305071	     -0.61691510	    -15.09045248	     15.21509893	      5.12071482	      2.40753692	     -1.76301228	      0.93968236	    -12.61626685	      5.85477935	    -13.71907760	    -12.03544304	      4.33056767	      3.72390736
      0.07000000	     -0.05923300	     -4.29026721	     -4.06678848	      0.16037944	      1.01981088	      0.80675982	      4.48313757	      5.92624376	     -0.66905707	    -15.13931725	     15.22593127	      5.12151905	      2.37980564	     -1.72582043	      1.00378096	    -12.57484072	      5.83098619	    -13.71967274	    -12.07015365	      4.30326658	      3.75273252
      0.08000000	     -0.04011402	     -4.25448296	     -4.00966294	      0.16032554	      1.01983064	      0.80660191	      4.47438888	      5.87867933	     -0.70909737	    -15.15102393	     15.26450625	      5.12413868	      2.34305204	     -1.67905990	      1.05336097	    -12.51592443	      5.79312946	    -13.72289275	    -12.09085737	      4.26879288	      3.70400573
      0.09000000	     -0.00907276	     -4.23113075	     -3.94871684	      0.16024404	      1.01986988	      0.80643518	      4.45554124	      5.84325837	     -0.75898208	    -15.16633552	     15.28755519	      5.12632040	      2.30260511	     -1.64366065	      1.11973440	    -12.47472632	      5.75768393	    -13.72960907	    -12.13165872	      4.24529090	      3.68745622
      0.10000000	     -0.00795832	     -4.22953527	     -3.91226787	      0.16014242	      1.01986313	      0.80632544	      4.46145697	      5.84012110	     -0.75249211	    -15.16851680	     15.28795540	      5.12621213	      2.30564133	     -1.64009394	      1.11592691	    -12.46028249	      5.75783561	    -13.72995763	    -12.14211485	      4.24378721	      3.69278398
      0.11000000	      0.03420753	     -4.18098262	     -3.83116446	      0.16006513	      1.01992369	      0.80613404	      4.42725906	      5.77596677	     -0.81098351	    -15.17711104	     15.32206841	      5.12020487	      2.24104391	     -1.57381965	      1.23480483	    -12.38824924	      5.70359336	    -13.73412055	    -12.19021728	      4.18920606	      3.63013793
      0.12000000	      0.07384693	     -4.16187594	     -3.76140259	      0.15997152	      1.01998351	      0.80596863	      4.38639776	      5.74695235	     -0.84462966	    -15.16960864	     15.33433937	      5.11178675	      2.18948478	     -1.54386051	      1.30409932	    -12.33978151	      5.67404388	    -13.74090029	    -12.24272654	      4.16666999	      3.58130226
      0.13000000	      0.09204096	     -4.14503669	     -3.70979741	      0.15985964	      1.02001421	      0.80582685	      4.37178867	      5.72476554	     -0.84453099	    -15.16754559	     15.33395424	      5.10516405	      2.16195614	     -1.51896749	      1.34554771	    -12.29467076	      5.66330847	    -13.74162450	    -12.27290796	      4.14821661	      3.54087324
      0.14000000	      0.11492822	     -4.11975413	     -3.64361124	      0.15978727	      1.02005715	      0.80566348	      4.33775128	      5.69024897	     -0.87197140	    -15.14156760	     15.33863936	      5.09368172	      2.12580705	     -1.48295988	      1.41406601	    -12.24314747	      5.64016231	    -13.73855872	    -12.29692227	      4.11731126	      3.50322585
      0.15000000	      0.14082411	     -4.10453364	     -3.58309642	      0.15969259	      1.02010785	      0.80550103	      4.31076328	      5.66670586	     -0.89281099	    -15.13562494	     15.33443756	      5.07950832	      2.08594697	     -1.45782303	      1.47103120	    -12.18975071	      5.62262477	    -13.73242692	    -12.33100068	      4.10039518	      3.44669611
      0.16000000	      0.15203784	     -4.09005366	     -3.53231949	      0.15961377	      1.02014193	      0.80533894	      4.28015504	      5.64297785	     -0.91854681	    -15.09134377	     15.33060147	      5.06930419	      2.06851149	     -1.43386545	      1.51223872	    -12.15322610	      5.61538336	    -13.72485757	    -12.34630889	      4.08195552	      3.43749116
      0.17000000	      0.18396727	     -4.07554821	     -3.46714830	      0.15952415	      1.02021414	      0.80514427	      4.23633384	      5.61660769	     -0.95454733	    -15.06568269	     15.31403977	      5.04673147	      2.02130362	     -1.40555088	      1.59337650	    -12.09765629	      5.59359211	    -13.70209347	    -12.38909029	      4.06745275	      3.38215040
      0.18000000	      0.18165572	     -4.07018456	     -3.43808307	      0.15944547	      1.02023384	      0.80500023	      4.22647320	      5.60390867	     -0.96134437	    -15.03607521	     15.30297726	      5.04222177	      2.01412061	     -1.39335794	      1.59473885	    -12.05656762	      5.60212779	    -13.69447657	    -12.39120320	      4.06113050	      3.36244897
      0.19000000	      0.19262150	     -4.05972013	     -3.39402410	      0.15934291	      1.02028453	      0.80481616	      4.19978510	      5.58230924	     -0.98308566	    -14.99761493	     15.26716228	      5.02575185	      1.99404944	     -1.36991165	      1.65944650	    -12.01296067	      5.59400401	    -13.66009706	    -12.41620302	      4.05057538	      3.32534920
      0.20000000	      0.18329007	     -4.05621638	     -3.37749874	      0.15925397	      1.02029744	      0.80466911	      4.19339705	      5.56946417	     -0.99639861	    -14.95804596	     15.25673464	      5.02238472	      1.99852875	     -1.35857348	      1.65691831	    -11.98174563	      5.60281088	    -13.65022896	    -12.41706237	      4.04512494	      3.32101496
      0.21000000	      0.17082627	     -4.04967439	     -3.36288886	      0.15915116	      1.02031153	      0.80451610	      4.18971886	      5.55336965	     -1.00479178	    -14.91516220	     15.22760135	      5.01718139	      2.00660851	     -1.34262094	      1.67006123	    -11.94985537	      5.60968046	    -13.63312875	    -12.41963166	      4.03588280	      3.30863648
